<?xml version="1.0" standalone="no"?>
<!DOCTYPE svg PUBLIC "-//W3C//DTD SVG 20010904//EN"
 "http://www.w3.org/TR/2001/REC-SVG-20010904/DTD/svg10.dtd">
<svg version="1.0" xmlns="http://www.w3.org/2000/svg"
 width="120.000000pt" height="55.000000pt" viewBox="0 0 1029.000000 263.000000"
 preserveAspectRatio="xMidYMid meet">

<g transform="translate(0.000000,263.000000) scale(0.100000,-0.100000)"
fill="#000000" stroke="none">
<path d="M8094 2377 c-2 -7 -3 -82 -2 -167 l3 -155 30 0 c23 0 33 7 43 28 l13
27 140 0 139 0 0 -530 c0 -519 0 -530 -20 -542 -30 -19 -28 -84 2 -91 31 -9
245 -4 254 5 15 16 7 65 -14 86 l-22 22 0 525 0 525 146 0 145 0 11 -31 c9
-26 15 -30 42 -27 l31 3 0 165 0 165 -31 3 c-27 3 -33 -1 -42 -27 l-11 -31
-386 0 -386 0 -10 30 c-9 24 -17 30 -40 30 -16 0 -32 -6 -35 -13z"/>
<path d="M530 2349 c-105 -14 -178 -49 -257 -122 -139 -128 -210 -301 -220
-533 -12 -278 49 -467 201 -620 205 -206 509 -202 741 9 49 44 63 52 77 44 13
-9 22 -7 37 7 12 11 21 25 21 32 0 7 -33 73 -74 146 -76 136 -98 157 -126 123
-8 -10 -13 -34 -11 -57 2 -38 -2 -45 -56 -98 -32 -31 -85 -70 -118 -86 -84
-41 -185 -41 -267 -1 -141 69 -218 223 -219 437 -1 126 12 194 50 277 93 198
280 261 479 161 80 -40 132 -95 125 -132 -6 -32 12 -56 42 -56 21 0 30 17 84
155 33 85 58 162 55 170 -8 21 -51 30 -69 15 -11 -10 -26 -5 -72 23 -144 87
-291 124 -423 106z"/>
<path d="M1700 2350 c-176 -25 -317 -141 -405 -334 -58 -126 -70 -191 -70
-376 0 -195 13 -256 83 -400 138 -282 424 -393 682 -264 140 71 262 241 309
433 29 118 29 340 1 461 -56 232 -220 424 -400 468 -67 16 -138 20 -200 12z
m205 -267 c41 -22 97 -75 132 -128 94 -138 103 -439 18 -605 -116 -227 -396
-254 -537 -51 -65 94 -83 164 -83 331 0 93 5 163 14 195 35 124 123 236 214
269 60 22 189 16 242 -11z"/>
<path d="M4320 2353 c-226 -21 -417 -214 -479 -483 -36 -160 -35 -335 4 -485
54 -208 206 -383 376 -436 73 -23 214 -25 282 -5 53 16 48 20 101 -75 31 -58
35 -70 26 -94 -8 -22 -7 -33 5 -51 8 -13 22 -24 30 -24 24 0 184 198 178 220
-7 26 -28 42 -50 38 -13 -2 -27 12 -50 50 l-32 52 49 65 c60 79 104 170 132
272 30 108 32 373 5 478 -83 313 -312 503 -577 478z m153 -259 c65 -22 140
-92 176 -165 88 -177 80 -456 -19 -612 l-31 -48 -46 51 c-25 28 -64 60 -86 72
-56 28 -139 28 -195 -1 -40 -21 -43 -24 -40 -59 3 -36 4 -37 48 -42 25 -3 55
-11 67 -18 23 -13 88 -90 81 -97 -3 -3 -25 -8 -50 -11 -156 -21 -302 123 -343
339 -53 277 56 540 245 598 44 13 145 10 193 -7z"/>
<path d="M7349 2335 c-127 -34 -237 -126 -291 -242 -28 -59 -33 -81 -36 -169
-7 -167 35 -264 140 -323 67 -39 154 -58 313 -71 137 -12 200 -24 225 -43 33
-25 50 -62 50 -110 0 -88 -43 -151 -129 -191 -37 -17 -65 -21 -141 -21 -88 0
-101 3 -164 34 -38 18 -91 55 -117 80 -42 40 -49 53 -49 85 0 47 -15 76 -41
76 -15 0 -34 -30 -89 -146 -39 -81 -70 -153 -70 -160 0 -7 11 -21 25 -30 19
-13 28 -14 39 -5 11 9 28 1 81 -39 111 -84 210 -126 325 -136 316 -30 573 231
530 537 -19 135 -79 223 -184 273 -57 27 -184 56 -246 56 -69 0 -183 21 -228
42 -117 55 -86 201 57 265 24 11 65 17 126 17 78 0 98 -3 152 -28 80 -37 117
-75 115 -120 -1 -37 27 -72 52 -63 8 3 42 76 76 162 58 150 60 158 44 176 -20
23 -47 24 -63 5 -10 -12 -24 -8 -89 25 -114 58 -190 79 -286 78 -44 0 -102 -7
-127 -14z"/>
<path d="M2547 2324 c-15 -16 -7 -63 13 -74 20 -11 20 -21 20 -610 0 -589 0
-599 -20 -610 -23 -12 -28 -64 -7 -77 17 -11 209 -13 230 -2 24 13 22 63 -3
80 -20 14 -20 22 -18 476 l3 461 275 -445 c151 -245 276 -453 278 -463 2 -9
-4 -23 -13 -30 -21 -17 -19 -67 3 -79 22 -12 251 -11 275 1 24 12 23 64 -3 78
-20 11 -20 21 -20 610 0 595 0 599 21 610 15 9 19 19 17 43 l-3 32 -119 3
c-127 3 -136 0 -136 -45 0 -12 9 -27 20 -33 19 -10 20 -21 20 -417 l0 -406
-29 44 c-16 24 -55 87 -88 139 -33 52 -133 209 -221 348 -89 139 -162 259
-162 266 0 8 7 19 16 26 9 8 14 25 12 44 l-3 31 -176 3 c-96 1 -178 -1 -182
-4z"/>
<path d="M5147 2323 c-15 -14 -6 -63 13 -75 19 -12 20 -24 20 -443 0 -451 6
-534 47 -637 41 -106 121 -181 228 -214 66 -21 255 -30 325 -15 128 27 219 92
271 193 59 117 62 140 66 646 4 448 5 462 24 473 15 8 19 19 17 42 l-3 32
-134 3 c-101 2 -136 -1 -143 -10 -14 -23 -8 -57 12 -68 21 -11 21 -17 18 -459
l-3 -447 -30 -59 c-37 -72 -87 -102 -185 -111 -102 -10 -176 10 -226 60 -71
71 -73 86 -74 573 -1 418 -1 426 19 444 22 20 25 36 15 63 -5 14 -27 16 -138
16 -73 0 -136 -3 -139 -7z"/>
<path d="M6467 2323 c-14 -14 -6 -61 13 -78 20 -18 20 -31 20 -605 0 -574 0
-587 -20 -605 -25 -23 -26 -71 -2 -84 20 -11 248 -8 259 2 14 15 5 65 -16 86
l-21 21 2 585 3 584 22 20 c12 11 20 28 18 38 -2 10 -4 24 -4 31 -1 9 -35 12
-134 12 -74 0 -137 -3 -140 -7z"/>
<path d="M9457 2324 c-11 -11 -8 -52 5 -73 14 -22 17 -8 -117 -431 -53 -168
-109 -345 -125 -395 -115 -365 -110 -353 -144 -384 -33 -31 -37 -86 -5 -94 26
-7 202 -7 229 0 27 7 36 47 17 77 -15 22 -13 32 22 142 l37 119 224 0 224 0
38 -118 c35 -108 37 -121 23 -140 -19 -28 -19 -52 1 -72 13 -13 37 -15 141
-13 130 2 153 9 153 47 0 9 -15 34 -34 54 -30 33 -55 101 -220 601 -102 310
-186 572 -186 583 0 10 5 24 11 30 6 6 9 23 7 39 l-3 29 -146 3 c-80 1 -148
-1 -152 -4z m283 -786 c0 -5 -66 -8 -146 -8 -122 0 -145 2 -141 14 13 32 130
403 135 426 4 18 25 -36 79 -200 40 -124 73 -228 73 -232z"/>
<path d="M9813 721 c-131 -38 -220 -113 -277 -231 -27 -56 -31 -76 -31 -147 0
-74 3 -85 30 -125 17 -23 51 -54 75 -68 39 -22 58 -25 136 -25 84 0 95 3 166
38 217 107 308 369 174 503 -65 65 -168 86 -273 55z m143 -40 c34 -15 45 -28
59 -65 52 -135 -48 -377 -180 -437 -60 -28 -127 -25 -164 6 -41 35 -55 83 -48
169 12 154 101 291 216 332 49 18 69 17 117 -5z"/>
<path d="M8310 694 c-6 -14 -10 -28 -10 -32 0 -4 -29 -113 -64 -242 -35 -129
-66 -248 -70 -263 l-7 -28 58 3 58 3 28 105 c15 58 32 122 38 143 l10 37 128
0 c108 0 130 3 135 16 3 9 6 18 6 20 0 2 -57 4 -126 4 l-126 0 6 33 c4 17 16
67 27 110 l21 77 139 0 c76 0 139 2 139 4 0 2 3 11 6 20 5 14 -15 16 -190 16
l-196 0 -10 -26z"/>
<path d="M8805 708 c-14 -48 -32 -111 -90 -326 -36 -134 -65 -245 -65 -248 0
-3 26 -4 57 -2 50 3 57 6 64 28 4 14 35 129 69 255 34 127 64 238 66 248 4 13
17 17 60 17 81 0 123 -28 124 -81 0 -34 -23 -90 -47 -111 -24 -22 -86 -48
-115 -48 -50 0 -52 -10 -24 -116 14 -55 32 -119 40 -144 l13 -45 62 -3 c46 -2
61 0 61 11 0 7 -15 58 -33 113 -46 135 -50 154 -35 154 63 0 150 59 174 117
34 81 10 149 -62 179 -45 19 -313 20 -319 2z"/>
<path d="M9341 653 c-10 -38 -44 -162 -75 -278 -32 -116 -59 -218 -62 -228 -5
-16 0 -18 53 -15 l58 3 72 265 c40 146 75 277 79 293 6 27 5 27 -50 27 l-55 0
-20 -67z"/>
<path d="M2790 569 c0 -6 -17 -9 -42 -7 -38 3 -43 0 -52 -24 -11 -31 -2 -48
16 -30 6 6 24 8 41 5 22 -5 33 -1 44 12 15 22 17 55 3 55 -5 0 -10 -5 -10 -11z"/>
<path d="M252 303 l3 -158 25 0 25 0 3 158 3 157 -31 0 -31 0 3 -157z"/>
<path d="M420 300 c0 -152 1 -160 20 -160 18 0 20 8 22 106 l3 107 88 -107
c48 -58 94 -106 102 -106 13 0 15 25 15 161 0 159 0 160 -22 157 -21 -3 -22
-7 -20 -108 l2 -105 -23 28 c-12 15 -51 63 -87 106 -96 118 -100 115 -100 -79z"/>
<path d="M796 438 c-20 -28 -21 -117 -3 -143 11 -14 30 -19 93 -21 l79 -3 3
-31 3 -30 -75 0 c-61 0 -76 3 -76 15 0 16 -18 19 -38 7 -17 -12 -4 -70 19 -82
10 -6 54 -10 98 -10 106 0 121 13 121 103 0 86 -12 97 -113 97 l-77 0 0 30 0
30 70 0 c56 0 70 -3 70 -15 0 -16 9 -19 34 -9 20 8 20 33 0 62 -14 20 -24 22
-104 22 -80 0 -90 -2 -104 -22z"/>
<path d="M1070 430 c0 -29 1 -30 50 -30 l50 0 0 -131 0 -130 28 3 27 3 3 128
3 127 44 0 c43 0 45 1 45 30 l0 30 -125 0 -125 0 0 -30z"/>
<path d="M1378 311 c-32 -81 -58 -153 -58 -159 0 -7 9 -12 21 -12 13 0 25 11
35 35 l14 35 68 0 c68 0 68 0 85 -35 13 -26 23 -35 42 -35 14 0 25 3 25 8 0 4
-27 76 -61 160 -57 142 -63 152 -88 152 -24 0 -30 -10 -83 -149z m105 22 c9
-27 17 -51 17 -55 0 -5 -18 -8 -40 -8 -22 0 -40 3 -40 6 0 15 33 104 39 104 4
0 15 -21 24 -47z"/>
<path d="M1680 300 l0 -161 108 3 107 3 0 30 0 30 -82 3 -83 3 0 124 0 125
-25 0 -25 0 0 -160z"/>
<path d="M2031 438 c-5 -13 -32 -80 -60 -151 -28 -70 -51 -132 -51 -137 0 -6
11 -10 24 -10 19 0 28 8 37 35 l13 35 68 0 68 0 14 -35 c12 -27 21 -35 40 -35
15 0 26 6 26 13 0 6 -26 77 -58 157 -53 134 -60 145 -85 148 -21 3 -29 -2 -36
-20z m69 -155 c0 -8 -15 -13 -40 -13 -22 0 -40 2 -40 4 0 2 10 30 22 61 l21
56 19 -48 c10 -26 18 -54 18 -60z"/>
<path d="M2290 441 c-5 -11 -10 -76 -10 -145 0 -118 1 -126 22 -140 12 -9 37
-16 55 -16 30 0 33 -3 33 -30 0 -21 5 -30 16 -30 9 0 14 -7 12 -17 -3 -14 -12
-17 -36 -15 -26 3 -32 0 -32 -16 0 -22 43 -34 79 -21 39 15 40 92 0 104 -30
10 -22 25 14 25 48 0 68 19 74 72 5 41 3 46 -18 51 -30 8 -39 1 -39 -29 0 -23
-3 -24 -65 -24 l-65 0 0 95 0 95 65 0 c61 0 65 -1 65 -23 0 -31 5 -35 36 -29
25 4 26 8 21 50 -3 24 -11 48 -18 53 -8 5 -55 9 -106 9 -81 0 -94 -2 -103 -19z"/>
<path d="M2629 443 c-18 -20 -17 -269 1 -287 16 -16 225 -15 242 2 19 19 18
263 -1 285 -20 25 -222 25 -242 0z m201 -138 l0 -95 -80 0 -80 0 0 95 0 95 80
0 80 0 0 -95z"/>
<path d="M2990 300 l0 -161 113 3 112 3 0 30 0 30 -87 3 -88 3 0 34 0 35 50 0
c49 0 50 1 50 30 0 29 -1 30 -50 30 -49 0 -50 1 -50 30 l0 30 85 0 85 0 0 30
0 30 -110 0 -110 0 0 -160z"/>
<path d="M3322 448 c-14 -14 -16 -136 -3 -157 7 -11 33 -15 93 -16 l83 -2 3
-31 3 -32 -75 0 c-62 0 -76 3 -76 16 0 10 -7 14 -22 12 -35 -5 -38 -61 -4 -83
34 -23 191 -18 206 5 5 8 10 47 10 87 0 88 -6 93 -114 93 l-76 0 0 30 0 30 70
0 c56 0 70 -3 70 -15 0 -16 9 -19 34 -9 21 8 21 48 0 68 -19 20 -183 23 -202
4z"/>
<path d="M3819 443 c-19 -22 -20 -266 -1 -285 18 -18 155 -23 192 -8 27 11 30
17 30 60 0 34 -4 50 -16 54 -28 11 -34 7 -34 -24 l0 -30 -65 0 -65 0 0 95 0
95 65 0 c65 0 65 0 65 -29 0 -25 3 -28 25 -23 22 4 25 9 25 46 0 23 -5 47 -12
54 -8 8 -46 12 -104 12 -73 0 -94 -3 -105 -17z"/>
<path d="M4156 444 c-13 -12 -16 -40 -16 -140 0 -162 2 -164 135 -164 133 0
135 2 135 164 0 159 3 156 -135 156 -81 0 -107 -3 -119 -16z m204 -139 l0 -95
-85 0 -85 0 0 95 0 95 85 0 85 0 0 -95z"/>
<path d="M4512 303 c3 -150 4 -158 23 -158 18 0 20 8 25 99 l5 98 39 -76 c21
-42 42 -79 47 -81 5 -3 28 32 51 77 l43 83 3 -102 c3 -102 3 -103 27 -103 l25
0 0 160 c0 160 0 160 -23 160 -18 0 -30 -15 -59 -72 -63 -124 -57 -123 -112
-19 -41 76 -53 91 -73 91 l-24 0 3 -157z"/>
<path d="M4902 303 l3 -158 110 0 110 0 3 33 3 32 -85 0 -86 0 0 35 0 35 51 0
c49 0 50 1 47 28 -3 25 -7 27 -50 30 -46 3 -48 5 -48 32 l0 29 83 3 c81 3 82
3 85 31 l3 27 -116 0 -116 0 3 -157z"/>
<path d="M5220 300 l0 -160 25 0 c24 0 25 3 25 60 0 57 1 60 24 60 18 0 37
-16 71 -60 38 -49 51 -60 76 -60 16 0 29 4 29 9 0 6 -19 31 -42 58 -38 45 -40
48 -20 51 35 5 52 40 52 108 0 87 -10 94 -138 94 l-102 0 0 -160z m186 85 c4
-8 3 -26 0 -40 -6 -23 -10 -25 -71 -25 l-65 0 0 40 0 40 65 0 c49 0 67 -4 71
-15z"/>
<path d="M5570 450 c-12 -7 -16 -37 -18 -139 -3 -120 -2 -131 17 -150 18 -18
33 -21 99 -21 100 0 122 14 122 74 0 31 -5 46 -16 50 -28 11 -34 7 -34 -24 l0
-30 -65 0 -65 0 0 95 0 95 65 0 c65 0 65 0 65 -29 0 -25 3 -28 25 -23 21 4 25
10 25 42 0 60 -17 70 -118 70 -48 0 -94 -5 -102 -10z"/>
<path d="M5892 303 l3 -158 25 0 25 0 3 158 3 157 -31 0 -31 0 3 -157z"/>
<path d="M6078 312 c-32 -82 -58 -153 -58 -160 0 -28 41 -11 57 23 17 35 17
35 83 35 65 0 67 -1 81 -32 10 -25 21 -34 43 -36 24 -3 28 -1 22 15 -4 10 -32
82 -63 161 -52 132 -58 142 -82 142 -24 -1 -30 -12 -83 -148z m105 19 c9 -27
17 -51 17 -55 0 -3 -18 -6 -40 -6 -22 0 -40 3 -40 8 0 14 34 102 40 102 3 0
13 -22 23 -49z"/>
<path d="M6380 300 l0 -160 25 0 25 0 0 160 0 160 -25 0 -25 0 0 -160z"/>
<path d="M6556 444 c-20 -19 -22 -122 -3 -148 10 -13 32 -19 95 -23 l82 -6 0
-28 0 -29 -75 0 c-60 0 -75 3 -75 15 0 17 -18 19 -39 6 -18 -12 -5 -68 19 -81
10 -6 55 -10 99 -10 104 0 121 14 121 98 0 89 -14 102 -111 102 l-79 0 0 30 0
30 70 0 c56 0 70 -3 70 -15 0 -17 18 -19 39 -6 14 9 8 44 -11 69 -16 19 -182
16 -202 -4z"/>
</g>
</svg>
